<svg version="1.1" xmlns="http://www.w3.org/2000/svg" xmlns:xlink="http://www.w3.org/1999/xlink" viewBox="0 0 172 172"><g fill="none" fill-rule="nonzero" stroke="none" stroke-width="1" stroke-linecap="butt" stroke-linejoin="miter" stroke-miterlimit="10" stroke-dasharray="" stroke-dashoffset="0" font-family="none" font-weight="none" font-size="none" text-anchor="none" style="mix-blend-mode: normal"><path d="M0,172v-172h172v172z" fill="none"></path><g fill="#000000"><path d="M28.66667,22.93333c-6.32387,0 -11.46667,5.1428 -11.46667,11.46667v103.2c0,6.32387 5.1428,11.46667 11.46667,11.46667h68.8c6.32387,0 11.46667,-5.1428 11.46667,-11.46667v-34.4l-11.46667,-11.46667v45.86667l-68.8,0.0112v-103.2112h68.8v13.25833l11.46667,11.46667v-24.725c0,-6.32387 -5.1428,-11.46667 -11.46667,-11.46667zM140.46667,40.13333c-11.0146,0 -20.06667,9.05206 -20.06667,20.06667c0,3.42969 0.96707,6.61594 2.50833,9.45104l-8.24167,8.24167l-23.15729,-23.15729c-3.9732,-3.9732 -10.41066,-3.9732 -14.37813,0l-0.91823,0.91823l46.69531,46.69531c-1.54126,2.8351 -2.50833,6.02135 -2.50833,9.45104c0,11.0146 9.05206,20.06667 20.06667,20.06667c11.0146,0 20.06667,-9.05206 20.06667,-20.06667c0,-11.0146 -9.05206,-20.06667 -20.06667,-20.06667c-3.42969,0 -6.61594,0.96707 -9.45104,2.50833l-8.24167,-8.24167l8.24167,-8.24167c2.8351,1.54126 6.02135,2.50833 9.45104,2.50833c11.0146,0 20.06667,-9.05206 20.06667,-20.06667c0,-11.0146 -9.05206,-20.06667 -20.06667,-20.06667zM140.46667,51.6c4.81756,0 8.6,3.78244 8.6,8.6c0,4.81756 -3.78244,8.6 -8.6,8.6c-4.81756,0 -8.6,-3.78244 -8.6,-8.6c0,-4.81756 3.78244,-8.6 8.6,-8.6zM40.13333,80.26667c-3.16643,0 -5.73333,2.5669 -5.73333,5.73333c0,3.16643 2.5669,5.73333 5.73333,5.73333c3.16643,0 5.73333,-2.5669 5.73333,-5.73333c0,-3.16643 -2.5669,-5.73333 -5.73333,-5.73333zM63.06667,80.26667c-3.16643,0 -5.73333,2.5669 -5.73333,5.73333c0,3.16643 2.5669,5.73333 5.73333,5.73333c3.16643,0 5.73333,-2.5669 5.73333,-5.73333c0,-3.16643 -2.5669,-5.73333 -5.73333,-5.73333zM86,80.26667c-3.16643,0 -5.73333,2.5669 -5.73333,5.73333c0,3.16643 2.5669,5.73333 5.73333,5.73333c3.16643,0 5.73333,-2.5669 5.73333,-5.73333c0,-3.16643 -2.5669,-5.73333 -5.73333,-5.73333zM140.46667,103.2c4.81756,0 8.6,3.78244 8.6,8.6c0,4.81756 -3.78244,8.6 -8.6,8.6c-4.81756,0 -8.6,-3.78244 -8.6,-8.6c0,-4.81756 3.78244,-8.6 8.6,-8.6z"></path></g></g></svg>