<svg version="1.1" xmlns="http://www.w3.org/2000/svg" xmlns:xlink="http://www.w3.org/1999/xlink" viewBox="0 0 172 172"><g fill="none" fill-rule="nonzero" stroke="none" stroke-width="1" stroke-linecap="butt" stroke-linejoin="miter" stroke-miterlimit="10" stroke-dasharray="" stroke-dashoffset="0" font-family="none" font-weight="none" font-size="none" text-anchor="none" style="mix-blend-mode: normal"><path d="M0,172v-172h172v172z" fill="none"></path><g fill="#000000"><path d="M28.66667,22.93333c-3.17053,0 -5.73333,2.5628 -5.73333,5.73333c0,3.17053 2.5628,5.73333 5.73333,5.73333h114.66667c3.17053,0 5.73333,-2.5628 5.73333,-5.73333c0,-3.17053 -2.5628,-5.73333 -5.73333,-5.73333zM108.93333,45.86667c-0.4816,0 -0.90775,0.16528 -1.35495,0.27995l-23.16849,5.77812c-2.3736,0.69373 -4.14323,2.80566 -4.14323,5.40859v34.4h-5.73333c-9.50013,0 -17.2,7.69987 -17.2,17.2c0,9.50013 7.69987,17.2 17.2,17.2c9.50013,0 17.2,-7.69987 17.2,-17.2v-35.54219l18.48776,-4.8487c2.5284,-0.59627 4.44558,-2.76391 4.44558,-5.47578v-11.46667c0,-3.1648 -2.56853,-5.73333 -5.73333,-5.73333zM28.66667,51.6c-3.17053,0 -5.73333,2.5628 -5.73333,5.73333c0,3.17053 2.5628,5.73333 5.73333,5.73333h40.13333v-5.73333c0,-2.00667 0.36021,-3.93307 0.99661,-5.73333zM126.13333,51.6v11.46667h17.2c3.17053,0 5.73333,-2.5628 5.73333,-5.73333c0,-3.17053 -2.5628,-5.73333 -5.73333,-5.73333zM28.66667,80.26667c-3.17053,0 -5.73333,2.5628 -5.73333,5.73333c0,3.17053 2.5628,5.73333 5.73333,5.73333h23.04531c4.13373,-5.47533 10.12775,-9.47371 17.08802,-10.89558v-0.57109zM110.70261,80.26667l-7.50261,1.97083v9.49583h40.13333c3.17053,0 5.73333,-2.5628 5.73333,-5.73333c0,-3.17053 -2.5628,-5.73333 -5.73333,-5.73333zM28.66667,108.93333c-3.17053,0 -5.73333,2.5628 -5.73333,5.73333c0,3.17053 2.5628,5.73333 5.73333,5.73333h19.65234c-1.55947,-3.5088 -2.45234,-7.3788 -2.45234,-11.46667zM103.2,108.93333c0,4.08787 -0.89287,7.95787 -2.45234,11.46667h42.58567c3.17053,0 5.73333,-2.5628 5.73333,-5.73333c0,-3.17053 -2.5628,-5.73333 -5.73333,-5.73333zM28.66667,137.6c-3.17053,0 -5.73333,2.5628 -5.73333,5.73333c0,3.17053 2.5628,5.73333 5.73333,5.73333h114.66667c3.17053,0 5.73333,-2.5628 5.73333,-5.73333c0,-3.17053 -2.5628,-5.73333 -5.73333,-5.73333z"></path></g></g></svg>